<svg xmlns="http://www.w3.org/2000/svg" viewBox="0 0 400 300" width="406" height="306" class="illustration styles_illustrationTablet__1DWOa"><g id="_364_customer_service_flatline" data-name="#364_customer_service_flatline"><path d="M182.61,131.52s-33.4-13.06-44.72-4.08-45.28,106.06-39,122.32,53.1,8.07,53.1,8.07,131.48,7.82,144.84,2.8C316.7,253.15,272.58,136,266,129.78s-37,4.51-37,4.51" fill="#68e1fd"></path><path d="M155.07,231a.49.49,0,0,1-.28-.09c-15.66-10.69-35.76-7.95-36-7.92a.5.5,0,0,1-.56-.43.5.5,0,0,1,.42-.56c.21,0,20.68-2.83,36.66,8.08a.5.5,0,0,1,.13.7A.49.49,0,0,1,155.07,231Z" fill="#231f20"></path><path d="M252,231a.5.5,0,0,1-.29-.92c16-10.91,36.46-8.11,36.67-8.08a.5.5,0,0,1,.42.56.51.51,0,0,1-.57.43c-.2,0-20.3-2.77-35.95,7.92A.51.51,0,0,1,252,231Z" fill="#231f20"></path><path d="M144.92,216.56h0a.5.5,0,0,1-.47-.53l3.51-59.52a.5.5,0,0,1,.53-.47.49.49,0,0,1,.47.53l-3.51,59.52A.51.51,0,0,1,144.92,216.56Z" fill="#231f20"></path><path d="M252,216.56a.5.5,0,0,1-.5-.5v-57a.5.5,0,0,1,.5-.5.5.5,0,0,1,.5.5v57A.5.5,0,0,1,252,216.56Z" fill="#231f20"></path><path d="M171.05,127.75s11.46,59.91,33,88.31c0,0,29.18-52.28,34.86-84.85,0,0-22.14,4.25-30.33,4.33S171.05,127.75,171.05,127.75Z" fill="#231f20"></path><path d="M204,216.56a.48.48,0,0,1-.4-.2c-21.34-28.17-32.95-87.91-33.07-88.51a.51.51,0,0,1,.15-.46.49.49,0,0,1,.47-.12c.29.08,29,7.77,37.24,7.77h.13c8.06-.08,30-4.27,30.25-4.32a.49.49,0,0,1,.44.14.48.48,0,0,1,.14.44c-5.63,32.28-34.63,84.48-34.92,85a.49.49,0,0,1-.4.26ZM171.7,128.44c1.43,7.09,12.68,60.25,32.26,86.7,3.39-6.18,28.78-53.15,34.31-83.3-3.92.74-22.29,4.12-29.71,4.2h-.13C200.75,136,176.47,129.7,171.7,128.44Z" fill="#231f20"></path><polygon points="197.16 149.91 201.79 157.94 190.13 192.46 204.03 216.06 216.71 191.36 207.53 158.09 212.36 149.91 204.7 142.31 197.16 149.91" fill="#d1d3d4"></polygon><path d="M204,216.56a.5.5,0,0,1-.44-.25l-13.89-23.6a.46.46,0,0,1,0-.41L201.25,158l-4.52-7.83a.5.5,0,0,1,.08-.6l7.53-7.6a.38.38,0,0,1,.36-.15.47.47,0,0,1,.35.15l7.66,7.6a.49.49,0,0,1,.08.61l-4.72,8,9.13,33.07a.56.56,0,0,1,0,.36l-12.69,24.7a.51.51,0,0,1-.43.27ZM190.68,192.4,204,215l12.18-23.71-9.13-33.09a.49.49,0,0,1,0-.39l4.63-7.84-7-7-6.91,7,4.44,7.7a.53.53,0,0,1,0,.41Z" fill="#231f20"></path><polygon points="180.93 125.57 224.85 125.71 224.08 142.48 193.06 142.48 178 135.27 180.93 125.57" fill="#231f20"></polygon><path d="M224.08,143h-31a.54.54,0,0,1-.21,0l-15.07-7.21a.51.51,0,0,1-.26-.6l2.93-9.69a.49.49,0,0,1,.48-.36h0l43.93.14a.52.52,0,0,1,.36.16.49.49,0,0,1,.13.36l-.77,16.77A.5.5,0,0,1,224.08,143Zm-30.9-1H223.6l.73-15.77-43-.14L178.6,135Z" fill="#231f20"></path><path d="M236.28,83c2.35-5.19,3-12.16,3.89-17.72.4-2.51,1.69-5.81,1.34-8.34-.25-1.77-1.46-3.2-1.57-5.2-.09-1.78-.08-3.68-1.07-5.16s-3.44-2.11-4.51-.69a54.24,54.24,0,0,0,2.5-13.71,23.32,23.32,0,0,1-12.1,2,17.71,17.71,0,0,0,4.18-4.86c-3.62,2.76-8.69,1.84-13.21,1.26-10.31-1.32-21.2,0-30.2,5.23-2.89,1.68-5.8,4.14-6.13,7.48a6.6,6.6,0,0,0-6.27,2.18,13.49,13.49,0,0,0-2.93,6.25c-3,13.22,2,24.58,3.28,37.62,9.76.6,19.61,1.43,29.46,1.28C210.77,90.46,232.1,92.18,236.28,83Z" fill="rgb(31, 45, 78)"></path><path d="M211,91.14c-1.5,0-2.92,0-4.23,0-1.46,0-2.75,0-3.79,0-8,.13-16.09-.41-23.91-.92l-5.59-.36a.5.5,0,0,1-.47-.45c-.42-4.21-1.24-8.29-2-12.24-1.71-8.49-3.32-16.51-1.24-25.54a13.67,13.67,0,0,1,3-6.47A7.29,7.29,0,0,1,179,42.65c.49-2.71,2.61-5.17,6.3-7.31,8.36-4.86,19.2-6.74,30.52-5.3l1,.13c4.26.56,8.67,1.15,11.86-1.28a.49.49,0,0,1,.63,0,.5.5,0,0,1,.1.63A18.24,18.24,0,0,1,226,33.73a22.75,22.75,0,0,0,10.66-2,.5.5,0,0,1,.71.48,54.69,54.69,0,0,1-2.12,12.5,3.27,3.27,0,0,1,.94-.11,4,4,0,0,1,3.11,1.7,9.39,9.39,0,0,1,1.13,4.92l0,.49a8.19,8.19,0,0,0,.79,2.76,9.62,9.62,0,0,1,.77,2.4,16.56,16.56,0,0,1-.76,5.91c-.23.92-.45,1.79-.58,2.58-.16,1-.32,2.11-.48,3.21-.7,4.85-1.5,10.35-3.45,14.63C233.48,90.34,220.7,91.14,211,91.14Zm-7.09-1.07,2.87,0c8.94.12,25.59.34,29.07-7.35h0c1.89-4.16,2.68-9.58,3.37-14.36.16-1.11.32-2.19.49-3.23.13-.83.35-1.72.58-2.66A15.73,15.73,0,0,0,241,57a8.57,8.57,0,0,0-.7-2.15,9,9,0,0,1-.87-3.1l0-.49a8.58,8.58,0,0,0-1-4.41,3,3,0,0,0-2.3-1.26,1.61,1.61,0,0,0-1.39.59.5.5,0,0,1-.63.15.52.52,0,0,1-.25-.6,53.48,53.48,0,0,0,2.43-12.77,23.75,23.75,0,0,1-11.61,1.71.48.48,0,0,1-.42-.36.49.49,0,0,1,.16-.53,17,17,0,0,0,2.9-3c-3.25,1.37-7.17.85-10.69.38l-1-.12c-11.1-1.42-21.71.41-29.88,5.16-3.65,2.12-5.63,4.51-5.89,7.1a.49.49,0,0,1-.21.36.5.5,0,0,1-.41.07,6.11,6.11,0,0,0-5.79,2,12.86,12.86,0,0,0-2.81,6c-2,8.83-.44,16.74,1.25,25.12.77,3.84,1.56,7.81,2,11.92l5.17.33c7.81.51,15.88,1,23.83.92Z" fill="#fff"></path><path d="M182.61,137.67s8.13,4.16,22.09,4.64S221,139,221,139l-.34-7.47-.76-17.36L219.14,98l-31.86-1.1L185.76,110l-.47,4.28Z" fill="#fff"></path><path d="M207.07,142.85c-.76,0-1.55,0-2.39,0-13.91-.48-22.21-4.65-22.29-4.69a.48.48,0,0,1-.27-.5l4.66-40.83a.48.48,0,0,1,.52-.44l31.86,1.1a.5.5,0,0,1,.48.48l1.84,41a.49.49,0,0,1-.08.29C221.31,139.43,219,142.85,207.07,142.85Zm-23.92-5.47c1.61.73,9.39,4,21.57,4.43,12,.41,15.21-2.38,15.75-3l-1.8-40.4-30.95-1.08Z" fill="#231f20"></path><path d="M185.29,114.32c2.27,4,6.15,7.13,10.15,9.54,6.72,4,16.84,8.66,25.2,7.68l-.76-17.36a78.09,78.09,0,0,1-18.38-.52c-5.36-.65-10.88-1.38-15.74-3.62Z" fill="#231f20"></path><path d="M218.26,132.17c-8.58,0-18-4.82-23.08-7.88-4.81-2.9-8.29-6.17-10.33-9.72a.52.52,0,0,1-.06-.3l.47-4.28a.51.51,0,0,1,.25-.38.5.5,0,0,1,.46,0c4.93,2.27,10.59,3,15.59,3.58a77.29,77.29,0,0,0,18.26.51.51.51,0,0,1,.56.47l.76,17.37a.49.49,0,0,1-.44.51A19.62,19.62,0,0,1,218.26,132.17Zm-32.46-18c2,3.35,5.29,6.45,9.9,9.22,5.38,3.23,15.64,8.46,24.42,7.66l-.72-16.36a79.57,79.57,0,0,1-18-.57c-4.85-.6-10.33-1.27-15.25-3.38Z" fill="#231f20"></path><path d="M228.48,61.51c1.58.16,1.16,4.59,1.17,6.92l0,11.82c0,4.63.16,9.29,0,13.91a24.72,24.72,0,0,1-.67,4.91,24.44,24.44,0,0,1-24.59,18.66l-2.85-.11A24.43,24.43,0,0,1,178,92.36c.09-2.69,0-5.41,0-8.11,0-3.43-1.81-11.8,2.24-13.35a17.08,17.08,0,0,1,4.11-.61,14.76,14.76,0,0,0,10.06-5.75l-.65,3.77a46.14,46.14,0,0,0,20.49-2.81c3.2-1.22,6.51-3,7.82-6.2l-.12,7c1.66-.24,2.81-1.71,3.93-3S227.91,61.45,228.48,61.51Z" fill="#fff"></path><path d="M205.27,118.24h-.86l-2.85-.11a24.9,24.9,0,0,1-24.05-25.77c.06-1.79,0-3.62,0-5.39,0-.91,0-1.81,0-2.71,0-.69-.08-1.59-.17-2.63-.35-4.15-.83-9.82,2.74-11.18a11,11,0,0,1,3.14-.55l1.08-.1A14.34,14.34,0,0,0,194,64.24a.5.5,0,0,1,.89.38l-.55,3.24A45.72,45.72,0,0,0,214.08,65c4.11-1.56,6.51-3.44,7.54-5.92a.48.48,0,0,1,.56-.3.5.5,0,0,1,.4.5l-.11,6.31a7.58,7.58,0,0,0,2.75-2.32l.29-.33c1.26-1.42,2.2-2,3-2h0c1.78.19,1.71,3.36,1.64,6.16,0,.46,0,.89,0,1.26l0,11.82c0,1.54,0,3.08,0,4.63,0,3.05.08,6.2,0,9.3a24.88,24.88,0,0,1-24.92,24.06Zm-11.65-52a15.42,15.42,0,0,1-9.21,4.55l-1.11.1a9.86,9.86,0,0,0-2.87.48c-2.86,1.09-2.41,6.34-2.09,10.16.09,1.07.17,2,.17,2.72,0,.9,0,1.79,0,2.7,0,1.78,0,3.62,0,5.43a23.91,23.91,0,0,0,23.08,24.74l2.86.11a23.88,23.88,0,0,0,24.74-23.08c.1-3.08.06-6.22,0-9.26,0-1.55,0-3.09,0-4.64l0-11.82c0-.38,0-.82,0-1.28,0-1.64.12-5.05-.74-5.14h0c-.2,0-.81.09-2.17,1.62L226,64c-1.05,1.2-2.23,2.56-3.93,2.8a.5.5,0,0,1-.41-.11.52.52,0,0,1-.17-.39l.09-5c-1.4,1.9-3.71,3.43-7.11,4.72a46.86,46.86,0,0,1-20.71,2.84.5.5,0,0,1-.45-.58Z" fill="#231f20"></path><path d="M204.12,77.17s8,17.71,4.47,18S200,92.87,200,92.87" fill="#fff"></path><path d="M208,95.73c-3.57,0-8-2.31-8.2-2.41a.5.5,0,0,1-.21-.68.5.5,0,0,1,.67-.21c.05,0,5,2.57,8.31,2.27a.32.32,0,0,0,.28-.18c1.07-1.84-2.6-11.49-5.16-17.14a.5.5,0,0,1,.91-.41c.7,1.54,6.79,15.17,5.11,18a1.3,1.3,0,0,1-1.05.68C208.42,95.72,208.19,95.73,208,95.73Z" fill="#231f20"></path><ellipse cx="194.82" cy="82.47" rx="1.68" ry="3.23" fill="#231f20"></ellipse><ellipse cx="215.99" cy="82.47" rx="1.68" ry="3.23" fill="#231f20"></ellipse><path d="M224.85,125.71c-.6,0-20.34,16.6-20.34,16.6l12.2,14.23,13-24.87Z" fill="#fff"></path><path d="M216.71,157a.53.53,0,0,1-.38-.18l-12.2-14.22a.52.52,0,0,1-.12-.37.5.5,0,0,1,.18-.34c19.87-16.72,20.43-16.72,20.66-16.72a.52.52,0,0,1,.39.18l4.9,6a.5.5,0,0,1,.05.55l-13,24.87a.51.51,0,0,1-.39.26Zm-11.49-14.67,11.39,13.28,12.54-23.92-4.41-5.37C222.75,127.73,212.37,136.36,205.22,142.37Z" fill="#231f20"></path><path d="M180.93,125.57c.65,0,23.77,16.74,23.77,16.74l-14.1,14.23-14.11-27.16Z" fill="#fff"></path><path d="M190.6,157h-.08a.5.5,0,0,1-.37-.26l-14.1-27.16a.5.5,0,0,1,.12-.61l4.43-3.81a.5.5,0,0,1,.33-.12c.2,0,.81,0,24.06,16.84a.47.47,0,0,1,.21.36.5.5,0,0,1-.14.39L191,156.89A.51.51,0,0,1,190.6,157ZM177.12,129.5l13.6,26.2,13.21-13.33c-8.54-6.18-21-15.06-22.92-16.21Z" fill="#231f20"></path><path d="M204.48,110.54l-.72,0c-9.53-.67-11.54-11.54-11.56-11.65a.48.48,0,0,1,.1-.4.51.51,0,0,1,.38-.18l25.41-.86a.48.48,0,0,1,.43.21.49.49,0,0,1,0,.47C218.37,98.63,213.52,110.54,204.48,110.54ZM193.31,99.26c.55,2.16,3,9.74,10.52,10.26s12.27-8.44,13.5-11.06Z" fill="#231f20"></path><path d="M173.23,64.85H178a0,0,0,0,1,0,0v32a0,0,0,0,1,0,0h-4.76a9.12,9.12,0,0,1-9.12-9.12V74A9.12,9.12,0,0,1,173.23,64.85Z" fill="#fff"></path><path d="M178,97.35h-4.77a9.64,9.64,0,0,1-9.62-9.63V74a9.64,9.64,0,0,1,9.62-9.63H178a.51.51,0,0,1,.5.5v32A.51.51,0,0,1,178,97.35Zm-4.77-32A8.64,8.64,0,0,0,164.61,74V87.72a8.64,8.64,0,0,0,8.62,8.63h4.27v-31Z" fill="#231f20"></path><path d="M238.87,64h4.76a0,0,0,0,1,0,0V96a0,0,0,0,1,0,0h-4.76a9.12,9.12,0,0,1-9.12-9.12V73.13A9.12,9.12,0,0,1,238.87,64Z" transform="translate(473.39 160.01) rotate(-180)" fill="#fff"></path><path d="M234.51,96.5h-4.76a.5.5,0,0,1-.5-.5V64a.5.5,0,0,1,.5-.5h4.76a9.63,9.63,0,0,1,9.63,9.62V86.88A9.64,9.64,0,0,1,234.51,96.5Zm-4.26-1h4.26a8.64,8.64,0,0,0,8.63-8.62V73.13a8.64,8.64,0,0,0-8.63-8.62h-4.26Z" fill="#231f20"></path><path d="M234.79,72.85a1,1,0,0,1-1-1c0-16.7-10.45-30.28-23.28-30.28h-13c-12.83,0-23.28,13.58-23.28,30.28a1,1,0,0,1-2,0c0-17.8,11.34-32.28,25.28-32.28h13c13.94,0,25.28,14.48,25.28,32.28A1,1,0,0,1,234.79,72.85Z" fill="#fff"></path><path d="M183.8,106.56c-4.81,0-8.7-.25-9.37-1-1.73-2-2.27-11.14-2.33-12.18a.51.51,0,0,1,.47-.53.49.49,0,0,1,.53.48c.15,2.73.81,10.14,2.08,11.57,1.08,1,15.74.74,29.3-.17a.52.52,0,0,1,.53.47.5.5,0,0,1-.47.53C201.63,105.92,191.53,106.56,183.8,106.56Z" fill="#231f20"></path><rect x="190.13" y="103.4" width="15.17" height="4.38" rx="2.19" fill="#231f20"></rect><path d="M203.11,108.28H192.32a2.69,2.69,0,0,1,0-5.38h10.79a2.69,2.69,0,0,1,0,5.38Zm-10.79-4.38a1.69,1.69,0,0,0,0,3.38h10.79a1.69,1.69,0,0,0,0-3.38Z" fill="#231f20"></path><path d="M198,86.7H187.17a6.49,6.49,0,0,1-6.48-6.49V74.54a.5.5,0,0,1,.5-.5H204a.5.5,0,0,1,.5.5v5.67A6.5,6.5,0,0,1,198,86.7ZM181.69,75v5.17a5.49,5.49,0,0,0,5.48,5.49H198a5.5,5.5,0,0,0,5.49-5.49V75Z" fill="#231f20"></path><path d="M224.58,86.7H213.71a6.5,6.5,0,0,1-6.49-6.49V74.54a.5.5,0,0,1,.5-.5h22.84a.5.5,0,0,1,.5.5v5.67A6.49,6.49,0,0,1,224.58,86.7ZM208.22,75v5.17a5.5,5.5,0,0,0,5.49,5.49h10.87a5.49,5.49,0,0,0,5.48-5.49V75Z" fill="#231f20"></path><path d="M207.72,77.67a.45.45,0,0,1-.27-.08,3.07,3.07,0,0,0-2.34-.74.85.85,0,0,0-.52.48.5.5,0,0,1-.63.31.49.49,0,0,1-.32-.62,1.83,1.83,0,0,1,1.12-1.11c.86-.3,2,0,3.24.85a.5.5,0,0,1-.28.91Z" fill="#231f20"></path><path d="M181.19,77.67H178a.5.5,0,0,1-.5-.5.5.5,0,0,1,.5-.5h3.19a.51.51,0,0,1,.5.5A.5.5,0,0,1,181.19,77.67Z" fill="#231f20"></path><polygon points="264.77 264.47 136.33 264.47 124.75 180.53 276.36 180.53 264.77 264.47" fill="#231f20"></polygon><path d="M264.77,265H136.33a.49.49,0,0,1-.49-.43L124.25,180.6a.54.54,0,0,1,.12-.39.53.53,0,0,1,.38-.18H276.36a.49.49,0,0,1,.37.18.46.46,0,0,1,.12.39l-11.58,83.94A.5.5,0,0,1,264.77,265Zm-128-1H264.34L275.78,181H125.32Z" fill="#231f20"></path><rect x="131.77" y="264.47" width="137.29" height="6.25" rx="3.12" fill="#231f20"></rect><path d="M266,271.22h-131a3.63,3.63,0,1,1,0-7.25H266a3.63,3.63,0,0,1,0,7.25ZM134.9,265a2.63,2.63,0,1,0,0,5.25H266a2.63,2.63,0,0,0,0-5.25Z" fill="#231f20"></path><path d="M260.09,265H134.9a.5.5,0,1,1,0-1H260.09a.5.5,0,0,1,0,1Z" fill="#fff"></path><path d="M169.23,83h-3.86a.5.5,0,0,1-.5-.5.5.5,0,0,1,.5-.5h3.86a.5.5,0,0,1,.5.5A.5.5,0,0,1,169.23,83Z" fill="#d1d3d4"></path><path d="M169.23,86.7h-3.86a.5.5,0,0,1,0-1h3.86a.5.5,0,0,1,0,1Z" fill="#d1d3d4"></path><path d="M200,221.14a2.07,2.07,0,0,0-.92-.7,3.12,3.12,0,0,0-1.1-.22,3.22,3.22,0,0,0-1.26.25,3,3,0,0,0-1.6,1.72,3.64,3.64,0,0,0-.22,1.29,4,4,0,0,0,.21,1.33,3.07,3.07,0,0,0,.61,1,2.82,2.82,0,0,0,.95.67,3.08,3.08,0,0,0,1.24.24,2.73,2.73,0,0,0,1.27-.29,2.41,2.41,0,0,0,.89-.74l1.27.89a4,4,0,0,1-1.44,1.15,4.64,4.64,0,0,1-2,.41,5.24,5.24,0,0,1-1.92-.35,4.36,4.36,0,0,1-1.5-1,4.45,4.45,0,0,1-1-1.48,5.06,5.06,0,0,1-.35-1.9,4.92,4.92,0,0,1,.37-1.93,4.4,4.4,0,0,1,1-1.47,4.55,4.55,0,0,1,1.53-.93,5.59,5.59,0,0,1,1.91-.32,4.67,4.67,0,0,1,.89.08,4.34,4.34,0,0,1,.89.25,4.15,4.15,0,0,1,.81.42,2.82,2.82,0,0,1,.64.6Z" fill="#fff"></path><path d="M206.86,220.91a1.91,1.91,0,0,0-.71-.54,2.07,2.07,0,0,0-.92-.22,2.15,2.15,0,0,0-.56.07,1.48,1.48,0,0,0-.5.21,1.22,1.22,0,0,0-.37.38,1,1,0,0,0-.14.56,1,1,0,0,0,.12.51,1.36,1.36,0,0,0,.35.37,2.38,2.38,0,0,0,.53.26l.69.23c.29.09.58.19.89.31a3.81,3.81,0,0,1,.84.46,2.33,2.33,0,0,1,.63.73,2.29,2.29,0,0,1,.24,1.1,2.77,2.77,0,0,1-.26,1.25,2.65,2.65,0,0,1-.7.88,3.05,3.05,0,0,1-1,.53,4.29,4.29,0,0,1-1.25.18,4.69,4.69,0,0,1-1.69-.32,3.28,3.28,0,0,1-1.36-1l1.13-1.06a2.37,2.37,0,0,0,.87.72,2.55,2.55,0,0,0,1.08.26,2.2,2.2,0,0,0,.56-.07,1.4,1.4,0,0,0,.9-.64,1.13,1.13,0,0,0,.15-.61,1,1,0,0,0-.17-.58,1.31,1.31,0,0,0-.44-.4,2.61,2.61,0,0,0-.65-.3l-.79-.26q-.41-.14-.81-.3a2.71,2.71,0,0,1-.72-.47,2.21,2.21,0,0,1-.52-.71,2.49,2.49,0,0,1-.2-1.05,2.3,2.3,0,0,1,.28-1.17,2.73,2.73,0,0,1,.74-.81,3.66,3.66,0,0,1,1-.48,4.79,4.79,0,0,1,1.19-.15,4.27,4.27,0,0,1,1.38.24,3.34,3.34,0,0,1,1.21.71Z" fill="#fff"></path><path d="M200.55,234.92A11.42,11.42,0,1,1,212,223.5,11.43,11.43,0,0,1,200.55,234.92Zm0-21.84A10.42,10.42,0,1,0,211,223.5,10.44,10.44,0,0,0,200.55,213.08Z" fill="#fff"></path></g></svg>